<svg width="512" height="512" viewBox="0 0 512 512" style="color:#ffffff" xmlns="http://www.w3.org/2000/svg" class="h-full w-full"><rect width="512" height="512" x="0" y="0" rx="30" fill="transparent" stroke="transparent" stroke-width="0" stroke-opacity="100%" /><svg width="512px" height="512px" viewBox="0 0 24 24" fill="#ffffff" x="0" y="0" role="img" style="display:inline-block;vertical-align:middle" xmlns="http://www.w3.org/2000/svg"><g fill="#ffffff"><path fill="currentColor" d="M11.001 10h2v5h-2zM11 16h2v2h-2z"/><path fill="currentColor" d="M13.768 4.2C13.42 3.545 12.742 3.138 12 3.138s-1.42.407-1.768 1.063L2.894 18.064a1.986 1.986 0 0 0 .054 1.968A1.984 1.984 0 0 0 4.661 21h14.678c.708 0 1.349-.362 1.714-.968a1.989 1.989 0 0 0 .054-1.968L13.768 4.2zM4.661 19L12 5.137L19.344 19H4.661z"/></g></svg></svg>